<svg xmlns="http://www.w3.org/2000/svg" enable-background="new 0 0 24 24" viewBox="0 0 24 24"><path d="M12,0C5.372,0,0,5.372,0,12s5.372,12,12,12c6.628,0,12-5.372,12-12S18.628,0,12,0L12,0z"/><path fill="#212121" d="M12,0C5.372,0,0,5.372,0,12h24C24,5.372,18.628,0,12,0L12,0z"/><path fill="#FFF" d="M18.472,6.944c-0.557,0.02-0.94-0.312-0.957-0.816c-0.006-0.192,0.054-0.382,0.168-0.537c0.125-0.241,0.151-0.27,0.148-0.375c-0.011-0.317-0.491-0.33-0.623-0.323c-1.802,0.061-2.275,2.491-2.661,4.467l-0.188,1.042c1.038,0.152,1.773-0.034,2.184-0.301c0.578-0.375-0.162-0.76-0.068-1.188c0.089-0.376,0.421-0.646,0.807-0.655c0.439-0.01,0.754,0.446,0.743,0.91c-0.015,0.767-1.031,1.82-3.063,1.777c-0.25-0.006-0.478-0.025-0.691-0.049l-0.382,2.116c-0.344,1.606-0.801,3.796-2.434,5.706c-1.402,1.668-2.826,1.927-3.464,1.949c-1.193,0.041-1.984-0.594-2.013-1.444c-0.026-0.822,0.7-1.27,1.177-1.287c0.638-0.021,1.077,0.441,1.094,0.974c0.017,0.45-0.218,0.591-0.372,0.674c-0.106,0.082-0.261,0.169-0.255,0.352c0.003,0.082,0.089,0.263,0.354,0.258c0.504-0.019,0.84-0.269,1.073-0.435c1.161-0.969,1.609-2.655,2.195-5.725l0.123-0.746c0.199-1,0.421-2.113,0.759-3.223c-0.818-0.616-1.31-1.379-2.412-1.68C8.958,8.181,8.497,8.358,8.173,8.766C7.79,9.249,7.916,9.881,8.287,10.251l0.612,0.677c0.752,0.865,1.159,1.54,1.007,2.447c-0.245,1.448-1.97,2.561-4.009,1.932c-1.743-0.535-2.069-1.769-1.86-2.449c0.185-0.596,0.66-0.709,1.125-0.566c0.498,0.153,0.692,0.758,0.551,1.224c-0.018,0.047-0.043,0.131-0.095,0.241c-0.058,0.128-0.165,0.241-0.209,0.392c-0.114,0.363,0.386,0.623,0.733,0.729c0.782,0.239,1.539-0.168,1.732-0.799c0.18-0.578-0.189-0.985-0.339-1.138L6.797,12.15c-0.338-0.375-1.079-1.424-0.719-2.6c0.15-0.497,0.451-0.934,0.861-1.254c0.798-0.619,1.847-0.811,2.812-0.514c1.207,0.347,1.786,1.146,2.539,1.761c0.42-1.231,1.003-2.441,1.881-3.461c0.792-0.929,1.855-1.603,3.075-1.644c1.218-0.039,2.138,0.512,2.17,1.385C19.427,6.196,19.215,6.921,18.472,6.944L18.472,6.944z"/><path fill="#DEDEDE" d="M9.675,12H6.67c0.046,0.058,0.089,0.108,0.126,0.15l0.737,0.791c0.149,0.153,0.519,0.56,0.339,1.138c-0.155,0.506-0.673,0.868-1.276,0.868c-0.148,0-0.302-0.022-0.456-0.069c-0.347-0.106-0.847-0.366-0.733-0.729c0.045-0.15,0.151-0.263,0.209-0.392c0.052-0.11,0.077-0.194,0.095-0.241c0.141-0.466-0.053-1.07-0.551-1.224c-0.117-0.036-0.235-0.056-0.348-0.056c-0.337,0-0.638,0.176-0.777,0.622c-0.209,0.68,0.117,1.914,1.86,2.449c0.4,0.123,0.788,0.18,1.155,0.18c1.504,0,2.658-0.947,2.854-2.111C9.99,12.869,9.901,12.435,9.675,12L9.675,12z M14.07,12h-2.44c-0.097,0.444-0.183,0.876-0.265,1.289l-0.123,0.746c-0.585,3.07-1.033,4.757-2.195,5.725c-0.233,0.166-0.569,0.416-1.073,0.435c-0.003,0-0.006,0-0.009,0c-0.258,0-0.342-0.177-0.345-0.258c-0.006-0.183,0.149-0.27,0.255-0.352c0.154-0.083,0.389-0.224,0.372-0.674c-0.016-0.521-0.437-0.974-1.052-0.974c-0.014,0-0.027,0-0.041,0c-0.477,0.018-1.203,0.466-1.177,1.287c0.028,0.823,0.772,1.445,1.904,1.445c0.036,0,0.072,0,0.109-0.002c0.638-0.022,2.062-0.282,3.464-1.949c1.633-1.91,2.09-4.1,2.434-5.706L14.07,12L14.07,12z"/></svg>